<svg width="37.703mm" height="37.703mm" version="1.1" viewBox="0 0 37.703 37.703" xmlns="http://www.w3.org/2000/svg">
 <g transform="translate(-98.049 -147.16)">
  <g transform="translate(1.5931 6.3193)" style="stroke-width:.26458">
   <path d="m105.08 151.03h1.1834q1.1059 0 1.4883 0.5271 0.22221 0.48059 0.31006 1.3591-0.0982 11.007-0.26355 11.007-0.28422 1.4159-0.67696 1.912l-0.78031 0.85266q-1.0025 0.99218-2.403 1.4004-0.86816 0.1757-1.4883 0.1757h-0.17569q-2.5631 0-3.7724-1.8862-0.43925-0.90433-0.43925-2.3668-0.02584-1.4211 0.56844-2.0619l0.53743-0.5426q0.16536-0.24805 0.82165-0.77515 0.69247-0.30489 1.4056-0.30489 0.40307 0 0.91984 0.1757 0.0465-1.9172 0.0465-2.9404v-2.6303q0-0.49093-0.0465-1.2712 0.11885-0.81648 0.44958-1.1886l0.72863-0.80615q0.41342-0.41858 0.60462-0.48059 0.1912-0.0672 0.98185-0.15503zm-0.79065 1.4469v7.9375q0 2.3926-0.61495 3.0282-0.14469 0.0879-0.26355 0.0879h-0.0879q-0.64078 0-0.83198-0.925v-0.1292q0-0.18086 0.0465-0.35139 0-1.0542-1.0128-1.0542h-0.30489q-1.142 0-1.142 0.79065-0.0413 0.12402-0.0413 0.65629v0.43924q0 2.3823 1.5761 2.9404 0.63562 0.39274 1.6691 0.39274h0.61495q1.8655 0 2.9352-1.4883 0.39791-0.99736 0.39791-3.9481 0.0413 0 0.0413-0.39274 0-0.24805-0.0413-0.48576 0.0413-1.881 0.0879-7.2347 0-0.96635-0.61495-0.96635-0.48059 0-0.8785-0.0413-1.4056 0-1.4056 0.3514-0.093 0-0.12919 0.39274z" style="fill:#a600ac"/>
   <path d="m111.74 151.12q2.7595 0.0413 4.4286 0.0413 0.21704 0 0.65629-0.0413 1.2506 0.1757 1.664 0.5271 0.48575 0.56327 0.48575 1.9275 0 1.2764-0.5891 1.7157l-0.80099 0.86299q-0.14469 0.40307-1.4159 0.40307h-1.6691v0.31006h1.0077q1.6226 0 1.6226 1.7518v0.26355q-0.0258 1.1937-0.59427 1.7932l-0.8785 0.92501q-0.50126 0.1757-1.0697 0.1757v3.9016q0 0.97151-0.55294 1.4934l-0.78548 0.89917q-0.5426 0.28422-2.0826 0.28422h-0.7028q-1.0128 0-1.5761-0.74414-0.1757-0.54777-0.22221-1.4934 0-1.1162 0.0878-4.3821-0.0878-2.2841-0.0878-3.4675 0-1.1886 0-1.2247 0.0465-0.79581-0.0413-2.806-0.0465-1.142 0.95601-1.9172 0.36173-0.42891 1.3229-1.0232 0.73897-0.1757 0.83716-0.1757zm-1.142 1.8397q0 0.91983 0.0879 1.6226-0.0465 0.73897-0.0465 1.142 0 0.5581 0.0465 1.2712l-0.0879 1.974v6.227q0 0.93017 0.56844 1.142l0.79065 0.0879q1.9275 0 1.9275-0.66145 0-0.25839-0.0413-0.91984 0.0413-3.0024 0.0413-3.9016 0-0.96635 0.7028-0.96635 0-0.062 1.2712-0.12919 0.52709-0.24288 0.52709-0.7493v-0.74414q-0.11885-0.74414-0.61494-0.74414h-1.2247q-0.79065 0-0.79065-0.96635v-0.74413q0-1.2299 0.7028-1.2299 0.65112-0.0413 1.0955-0.0413h1.7105q0.96118 0 0.96118-0.83199v-0.3514q0-1.4469-0.65629-1.4469-0.27388-0.0879-0.7028-0.13436-1.5038 0.0465-1.9275 0.0465-1.4108 0-2.5011-0.0879-1.5761 0.0723-1.5761 0.39274-0.26355 0.1912-0.26355 0.74414z" style="fill:#a600ac"/>
   <path d="m122.17 151.03q0.50643 0 1.8862 0 0.48059 0 1.049 0.48059 0.29972 0.35657 0.61495 1.6226l0.48059 1.7983h0.0465q0.77514-1.6846 1.2712-2.2376l0.74414-0.74414q0.57877-0.79065 1.5348-0.79065h0.39791q1.6071-0.10335 2.0154 0.55811 0.30489 0.51676 0.30489 1.2402v0.43924q0 0.97152 0.0465 1.4056-0.13436 3.6587-0.13436 5.1728v2.9817q0 1.8345 0.13436 2.8525 0 0.48576-0.48059 0.96635l-0.69247 0.93017q-0.40824 0.7183-1.9844 0.64596h-0.48059q-2.1084 0-2.1084-1.5761v-1.2764q0-0.22738 0.0465-0.74414h-0.0465q-0.0723 5e-3 -0.58911 0.80615-0.40824 0.46508-0.70796 0.72863l-0.27905 0.28422q-0.3359 0.18604-0.79065 0.24288l-0.49092 0.57878q-0.34107 0.65112-0.72347 0.76997-0.34623 0.0103-0.84749 0.0103h-1.2299q-1.2816 0-1.4883-1.2712-0.0879-0.48059-0.0879-1.0955 0-0.51159 0.0413-0.83198 0-0.21188-0.0413-0.43925 0.0413-2.3461 0.0413-3.8189v-1.4004q0-1.0749-0.12919-5.7464 0-0.7338 0.7183-1.3488l0.61494-0.65629q0.48576-0.53743 1.3436-0.53743zm-0.74931 1.4469q0.1757 3.9481 0.1757 5.2606-0.0413 4.8059-0.0413 7.0176 0 1.4469 0.56844 1.4469 0.23254 0.0465 1.3177 0.0465 1.1369-0.062 1.1369-0.5271 0.12402-0.16019 0.1757-1.0955-0.0878-2.1291-0.0878-2.5425 0.0724-0.66145 0.26355-0.66145h0.0879q0.20154 0.0103 1.2712 2.5011l0.1757 0.12919h0.26354q0.34107 0 1.0542-2.1032 0.40308-1.0077 0.65629-1.0955h0.0879q0.23254 0 0.31006 1.3591-0.0465 0.5736-0.0465 0.91983v2.6303q0 0.53743 1.0077 0.61494h1.0542q0.96635 0 0.96635-0.5271-0.13436-1.5038-0.13436-3.5502 0-3.0437 0.13436-7.4104-0.0465-1.2196-0.0465-2.3409-0.12402-0.70279-0.79065-0.70279-0.66662 0.0155-1.2712 0.0155-0.87333 0-1.4314 1.6743-0.42891 0.96118-1.5916 4.1134-0.16019 0.13436-0.31005 0.13436-0.47026-0.81132-1.4004-4.7801-0.3514-1.1834-0.74414-1.1834 0-0.0465-0.13436-0.0465-0.98185 0-1.142 0h-0.91984q-0.61495 0-0.61495 0.7028z" style="fill:#a600ac"/>
  </g>
 </g>
</svg>
